<?xml version="1.0" standalone="no"?>
<!DOCTYPE svg PUBLIC "-//W3C//DTD SVG 20010904//EN"
 "http://www.w3.org/TR/2001/REC-SVG-20010904/DTD/svg10.dtd">
<svg version="1.0" xmlns="http://www.w3.org/2000/svg"
 width="224.000000pt" height="225.000000pt" viewBox="0 0 224.000000 225.000000"
 preserveAspectRatio="xMidYMid meet">

<g transform="translate(0.000000,225.000000) scale(0.100000,-0.100000)"
fill="#000000" stroke="none">
<path d="M750 2126 c-298 -67 -536 -291 -615 -581 -41 -151 -28 -363 32 -512
187 -466 767 -649 1186 -373 69 45 180 152 224 216 40 56 92 170 115 250 29
104 32 304 4 404 -85 310 -316 532 -619 594 -89 19 -248 19 -327 2z m325 -198
c108 -31 182 -75 265 -158 175 -174 231 -417 150 -647 -61 -174 -205 -318
-380 -380 -98 -35 -254 -43 -351 -19 -176 44 -330 167 -408 326 -69 140 -85
262 -55 408 24 121 75 213 169 308 170 171 383 228 610 162z"/>
<path d="M1595 802 c-28 -37 -89 -98 -135 -135 -47 -37 -85 -72 -85 -77 0 -18
431 -442 470 -463 59 -30 126 -27 178 10 57 40 98 101 104 156 10 86 -3 105
-245 350 -124 125 -228 227 -231 227 -3 0 -29 -31 -56 -68z"/>
</g>
</svg>
